<?xml version="1.0" encoding="UTF-8" standalone="no"?>
<svg
   xmlns:dc="http://purl.org/dc/elements/1.1/"
   xmlns:cc="http://creativecommons.org/ns#"
   xmlns:rdf="http://www.w3.org/1999/02/22-rdf-syntax-ns#"
   xmlns:svg="http://www.w3.org/2000/svg"
   xmlns="http://www.w3.org/2000/svg"
   xmlns:sodipodi="http://sodipodi.sourceforge.net/DTD/sodipodi-0.dtd"
   xmlns:inkscape="http://www.inkscape.org/namespaces/inkscape"
   width="24"
   height="24"
   class="tanuki-logo"
   viewBox="0 0 36 36"
   version="1.1"
   id="svg103"
   sodipodi:docname="gitlab.svg"
   inkscape:version="0.92.2 5c3e80d, 2017-08-06">
  <metadata
     id="metadata109">
    <rdf:RDF>
      <cc:Work
         rdf:about="">
        <dc:format>image/svg+xml</dc:format>
        <dc:type
           rdf:resource="http://purl.org/dc/dcmitype/StillImage" />
        <dc:title></dc:title>
      </cc:Work>
    </rdf:RDF>
  </metadata>
  <defs
     id="defs107" />
  <sodipodi:namedview
     pagecolor="#ffffff"
     bordercolor="#666666"
     borderopacity="1"
     objecttolerance="10"
     gridtolerance="10"
     guidetolerance="10"
     inkscape:pageopacity="0"
     inkscape:pageshadow="2"
     inkscape:window-width="1038"
     inkscape:window-height="759"
     id="namedview105"
     showgrid="false"
     inkscape:zoom="22.583333"
     inkscape:cx="12"
     inkscape:cy="12"
     inkscape:window-x="0"
     inkscape:window-y="0"
     inkscape:window-maximized="0"
     inkscape:current-layer="svg103" />
  <path
     class="tanuki-shape tanuki-left-ear"
     fill="#e24329"
     d="M2 14l9.38 9v-9l-4-12.28c-.205-.632-1.176-.632-1.38 0z"
     id="path89" />
  <path
     class="tanuki-shape tanuki-right-ear"
     fill="#e24329"
     d="M34 14l-9.38 9v-9l4-12.28c.205-.632 1.176-.632 1.38 0z"
     id="path91" />
  <path
     class="tanuki-shape tanuki-nose"
     fill="#e24329"
     d="M18,34.38 3,14 33,14 Z"
     id="path93" />
  <path
     class="tanuki-shape tanuki-left-eye"
     fill="#fc6d26"
     d="M18,34.38 11.38,14 2,14 6,25Z"
     id="path95" />
  <path
     class="tanuki-shape tanuki-right-eye"
     fill="#fc6d26"
     d="M18,34.38 24.62,14 34,14 30,25Z"
     id="path97" />
  <path
     class="tanuki-shape tanuki-left-cheek"
     fill="#fca326"
     d="M2 14L.1 20.16c-.18.565 0 1.2.5 1.56l17.42 12.66z"
     id="path99" />
  <path
     class="tanuki-shape tanuki-right-cheek"
     fill="#fca326"
     d="M34 14l1.9 6.16c.18.565 0 1.2-.5 1.56L18 34.38z"
     id="path101" />
</svg>
